# xmcd
#
# Track frame offsets: 
#        150
#        23905
#        43790
#        70787
#        86762
#        115252
#        152660
#        182660
#        215622
#        251447
#
# Disc length: 3449 seconds
#
# Revision: 1
# Processed by: cddbd v1.5.2PL0 Copyright (c) Steve Scherf et al.
# Submitted via: ExactAudioCopy v0.99pb4
#
DISCID=840d770a
DTITLE=Pinetop Perkins - Live at 85!
DYEAR=1999
DGENRE=Blues
TTITLE0=Chicken Shack
TTITLE1=Just A Little Bit
TTITLE2=High Heel Sneakers
TTITLE3=Look On Yonder´s Wall
TTITLE4=How Long
TTITLE5=Down In Mississippi
TTITLE6=Ida B.
TTITLE7=Kidney Stew
TTITLE8=Hoochie Coochie Man
TTITLE9=Hold It
EXTD=
EXTT0=
EXTT1=
EXTT2=
EXTT3=
EXTT4=
EXTT5=
EXTT6=
EXTT7=
EXTT8=
EXTT9=
PLAYORDER=
